<svg width="909" height="178" viewBox="0 0 909 178" fill="none" xmlns="http://www.w3.org/2000/svg">
<mask id="path-1-outside-1_426_1175" maskUnits="userSpaceOnUse" x="0" y="0" width="909" height="178" fill="black">
<rect fill="white" width="909" height="178"/>
<path d="M4.76239 132.672V45.588C4.76239 18.036 18.5384 4.25999 46.0904 4.25999H117.184L133.666 17.052V36.24H47.5664C42.6464 36.24 40.1864 38.7 40.1864 43.62V134.64C40.1864 139.56 42.6464 142.02 47.5664 142.02H103.162V102.66H70.6904V70.68H138.586V174H46.0904C18.5384 174 4.76239 160.224 4.76239 132.672ZM143.441 167.358L193.871 4.25999H247.991L298.421 167.358L293.993 174H264.473L254.141 139.56H187.721L177.389 174H147.869L143.441 167.358ZM197.315 107.58H244.547L222.899 36.24H218.963L197.315 107.58ZM308.265 174V4.25999H350.577L398.301 106.104L446.025 4.25999H488.337V174H452.913V66.744L413.061 151.86H383.541L343.689 66.744V174H308.265ZM514.04 174V4.25999H630.152V36.24H549.464V70.68H622.772V102.66H549.464V142.02H630.152V174H514.04ZM647.745 174V4.25999H730.401C757.953 4.25999 771.729 18.036 771.729 45.588V73.632C771.729 94.132 764.103 106.924 748.851 112.008L776.649 166.62L772.467 174H741.963L711.951 114.96H683.169V174H647.745ZM683.169 82.98H728.925C733.845 82.98 736.305 80.52 736.305 75.6V43.62C736.305 38.7 733.845 36.24 728.925 36.24H683.169V82.98ZM785.12 161.208V142.02H861.38C866.3 142.02 868.76 139.56 868.76 134.64V116.928C868.76 112.172 866.71 109.466 862.61 108.81L814.64 98.97C794.96 95.034 785.12 81.832 785.12 59.364V45.588C785.12 18.036 798.896 4.25999 826.448 4.25999H882.782L899.264 17.052V36.24H827.924C823.004 36.24 820.544 38.7 820.544 43.62V59.61C820.544 64.202 822.594 66.908 826.694 67.728L874.664 77.322C894.344 81.258 904.184 94.46 904.184 116.928V132.672C904.184 160.224 890.408 174 862.856 174H801.602L785.12 161.208Z"/>
</mask>
<path d="M117.184 4.25999L119.637 1.10004L118.555 0.259986H117.184V4.25999ZM133.666 17.052H137.666V15.0931L136.119 13.8921L133.666 17.052ZM133.666 36.24V40.24H137.666V36.24H133.666ZM103.162 142.02V146.02H107.162V142.02H103.162ZM103.162 102.66H107.162V98.66H103.162V102.66ZM70.6904 102.66H66.6904V106.66H70.6904V102.66ZM70.6904 70.68V66.68H66.6904V70.68H70.6904ZM138.586 70.68H142.586V66.68H138.586V70.68ZM138.586 174V178H142.586V174H138.586ZM8.76239 132.672V45.588H0.762386V132.672H8.76239ZM8.76239 45.588C8.76239 32.4286 12.0495 23.2937 17.9228 17.4204C23.7961 11.5471 32.931 8.25999 46.0904 8.25999V0.259986C31.6978 0.259986 20.1687 3.86084 12.266 11.7636C4.36324 19.6663 0.762386 31.1954 0.762386 45.588H8.76239ZM46.0904 8.25999H117.184V0.259986H46.0904V8.25999ZM114.732 7.41993L131.214 20.2119L136.119 13.8921L119.637 1.10004L114.732 7.41993ZM129.666 17.052V36.24H137.666V17.052H129.666ZM133.666 32.24H47.5664V40.24H133.666V32.24ZM47.5664 32.24C44.4898 32.24 41.4477 33.0119 39.203 35.2566C36.9582 37.5013 36.1864 40.5434 36.1864 43.62H44.1864C44.1864 41.7766 44.6445 41.1287 44.8598 40.9134C45.0751 40.6981 45.723 40.24 47.5664 40.24V32.24ZM36.1864 43.62V134.64H44.1864V43.62H36.1864ZM36.1864 134.64C36.1864 137.717 36.9582 140.759 39.203 143.003C41.4477 145.248 44.4898 146.02 47.5664 146.02V138.02C45.723 138.02 45.0751 137.562 44.8598 137.347C44.6445 137.131 44.1864 136.483 44.1864 134.64H36.1864ZM47.5664 146.02H103.162V138.02H47.5664V146.02ZM107.162 142.02V102.66H99.1624V142.02H107.162ZM103.162 98.66H70.6904V106.66H103.162V98.66ZM74.6904 102.66V70.68H66.6904V102.66H74.6904ZM70.6904 74.68H138.586V66.68H70.6904V74.68ZM134.586 70.68V174H142.586V70.68H134.586ZM138.586 170H46.0904V178H138.586V170ZM46.0904 170C32.931 170 23.7961 166.713 17.9228 160.84C12.0495 154.966 8.76239 145.831 8.76239 132.672H0.762386C0.762386 147.065 4.36324 158.594 12.266 166.496C20.1687 174.399 31.6978 178 46.0904 178V170ZM143.441 167.358L139.62 166.176L139.058 167.994L140.113 169.577L143.441 167.358ZM193.871 4.25999V0.259986H190.921L190.05 3.07838L193.871 4.25999ZM247.991 4.25999L251.813 3.07838L250.941 0.259986H247.991V4.25999ZM298.421 167.358L301.749 169.577L302.805 167.994L302.243 166.176L298.421 167.358ZM293.993 174V178H296.134L297.321 176.219L293.993 174ZM264.473 174L260.642 175.149L261.497 178H264.473V174ZM254.141 139.56L257.972 138.411L257.117 135.56H254.141V139.56ZM187.721 139.56V135.56H184.745L183.89 138.411L187.721 139.56ZM177.389 174V178H180.365L181.22 175.149L177.389 174ZM147.869 174L144.541 176.219L145.728 178H147.869V174ZM197.315 107.58L193.487 106.419L191.921 111.58H197.315V107.58ZM244.547 107.58V111.58H249.941L248.375 106.419L244.547 107.58ZM222.899 36.24L226.727 35.0785L225.865 32.24H222.899V36.24ZM218.963 36.24V32.24H215.997L215.135 35.0785L218.963 36.24ZM147.263 168.54L197.693 5.44159L190.05 3.07838L139.62 166.176L147.263 168.54ZM193.871 8.25999H247.991V0.259986H193.871V8.25999ZM244.17 5.44159L294.6 168.54L302.243 166.176L251.813 3.07838L244.17 5.44159ZM295.093 165.139L290.665 171.781L297.321 176.219L301.749 169.577L295.093 165.139ZM293.993 170H264.473V178H293.993V170ZM268.304 172.851L257.972 138.411L250.31 140.709L260.642 175.149L268.304 172.851ZM254.141 135.56H187.721V143.56H254.141V135.56ZM183.89 138.411L173.558 172.851L181.22 175.149L191.552 140.709L183.89 138.411ZM177.389 170H147.869V178H177.389V170ZM151.197 171.781L146.769 165.139L140.113 169.577L144.541 176.219L151.197 171.781ZM197.315 111.58H244.547V103.58H197.315V111.58ZM248.375 106.419L226.727 35.0785L219.071 37.4015L240.719 108.741L248.375 106.419ZM222.899 32.24H218.963V40.24H222.899V32.24ZM215.135 35.0785L193.487 106.419L201.143 108.741L222.791 37.4015L215.135 35.0785ZM308.265 174H304.265V178H308.265V174ZM308.265 4.25999V0.259986H304.265V4.25999H308.265ZM350.577 4.25999L354.199 2.5627L353.12 0.259986H350.577V4.25999ZM398.301 106.104L394.679 107.801L398.301 115.531L401.923 107.801L398.301 106.104ZM446.025 4.25999V0.259986H443.482L442.403 2.5627L446.025 4.25999ZM488.337 4.25999H492.337V0.259986H488.337V4.25999ZM488.337 174V178H492.337V174H488.337ZM452.913 174H448.913V178H452.913V174ZM452.913 66.744H456.913L449.29 65.0479L452.913 66.744ZM413.061 151.86V155.86H415.605L416.683 153.556L413.061 151.86ZM383.541 151.86L379.918 153.556L380.997 155.86H383.541V151.86ZM343.689 66.744L347.311 65.0479L339.689 66.744H343.689ZM343.689 174V178H347.689V174H343.689ZM312.265 174V4.25999H304.265V174H312.265ZM308.265 8.25999H350.577V0.259986H308.265V8.25999ZM346.955 5.95727L394.679 107.801L401.923 104.407L354.199 2.5627L346.955 5.95727ZM401.923 107.801L449.647 5.95727L442.403 2.5627L394.679 104.407L401.923 107.801ZM446.025 8.25999H488.337V0.259986H446.025V8.25999ZM484.337 4.25999V174H492.337V4.25999H484.337ZM488.337 170H452.913V178H488.337V170ZM456.913 174V66.744H448.913V174H456.913ZM449.29 65.0479L409.438 150.164L416.683 153.556L456.535 68.4401L449.29 65.0479ZM413.061 147.86H383.541V155.86H413.061V147.86ZM387.163 150.164L347.311 65.0479L340.066 68.4401L379.918 153.556L387.163 150.164ZM339.689 66.744V174H347.689V66.744H339.689ZM343.689 170H308.265V178H343.689V170ZM514.04 174H510.04V178H514.04V174ZM514.04 4.25999V0.259986H510.04V4.25999H514.04ZM630.152 4.25999H634.152V0.259986H630.152V4.25999ZM630.152 36.24V40.24H634.152V36.24H630.152ZM549.464 36.24V32.24H545.464V36.24H549.464ZM549.464 70.68H545.464V74.68H549.464V70.68ZM622.772 70.68H626.772V66.68H622.772V70.68ZM622.772 102.66V106.66H626.772V102.66H622.772ZM549.464 102.66V98.66H545.464V102.66H549.464ZM549.464 142.02H545.464V146.02H549.464V142.02ZM630.152 142.02H634.152V138.02H630.152V142.02ZM630.152 174V178H634.152V174H630.152ZM518.04 174V4.25999H510.04V174H518.04ZM514.04 8.25999H630.152V0.259986H514.04V8.25999ZM626.152 4.25999V36.24H634.152V4.25999H626.152ZM630.152 32.24H549.464V40.24H630.152V32.24ZM545.464 36.24V70.68H553.464V36.24H545.464ZM549.464 74.68H622.772V66.68H549.464V74.68ZM618.772 70.68V102.66H626.772V70.68H618.772ZM622.772 98.66H549.464V106.66H622.772V98.66ZM545.464 102.66V142.02H553.464V102.66H545.464ZM549.464 146.02H630.152V138.02H549.464V146.02ZM626.152 142.02V174H634.152V142.02H626.152ZM630.152 170H514.04V178H630.152V170ZM647.745 174H643.745V178H647.745V174ZM647.745 4.25999V0.259986H643.745V4.25999H647.745ZM748.851 112.008L747.586 108.213L743.179 109.682L745.286 113.822L748.851 112.008ZM776.649 166.62L780.129 168.592L781.189 166.722L780.214 164.805L776.649 166.62ZM772.467 174V178H774.798L775.947 175.972L772.467 174ZM741.963 174L738.397 175.813L739.509 178H741.963V174ZM711.951 114.96L715.517 113.147L714.405 110.96H711.951V114.96ZM683.169 114.96V110.96H679.169V114.96H683.169ZM683.169 174V178H687.169V174H683.169ZM683.169 82.98H679.169V86.98H683.169V82.98ZM683.169 36.24V32.24H679.169V36.24H683.169ZM651.745 174V4.25999H643.745V174H651.745ZM647.745 8.25999H730.401V0.259986H647.745V8.25999ZM730.401 8.25999C743.56 8.25999 752.695 11.5471 758.568 17.4204C764.442 23.2937 767.729 32.4286 767.729 45.588H775.729C775.729 31.1954 772.128 19.6663 764.225 11.7636C756.323 3.86084 744.793 0.259986 730.401 0.259986V8.25999ZM767.729 45.588V73.632H775.729V45.588H767.729ZM767.729 73.632C767.729 83.4212 765.904 90.9669 762.574 96.5527C759.292 102.057 754.381 105.948 747.586 108.213L750.116 115.803C758.573 112.984 765.101 107.937 769.445 100.649C773.741 93.4431 775.729 84.3428 775.729 73.632H767.729ZM745.286 113.822L773.084 168.434L780.214 164.805L752.416 110.193L745.286 113.822ZM773.169 164.648L768.987 172.028L775.947 175.972L780.129 168.592L773.169 164.648ZM772.467 170H741.963V178H772.467V170ZM745.529 172.187L715.517 113.147L708.385 116.773L738.397 175.813L745.529 172.187ZM711.951 110.96H683.169V118.96H711.951V110.96ZM679.169 114.96V174H687.169V114.96H679.169ZM683.169 170H647.745V178H683.169V170ZM683.169 86.98H728.925V78.98H683.169V86.98ZM728.925 86.98C732.001 86.98 735.044 86.2081 737.288 83.9634C739.533 81.7187 740.305 78.6766 740.305 75.6H732.305C732.305 77.4434 731.847 78.0913 731.631 78.3066C731.416 78.5219 730.768 78.98 728.925 78.98V86.98ZM740.305 75.6V43.62H732.305V75.6H740.305ZM740.305 43.62C740.305 40.5434 739.533 37.5013 737.288 35.2566C735.044 33.0119 732.001 32.24 728.925 32.24V40.24C730.768 40.24 731.416 40.6981 731.631 40.9134C731.847 41.1287 732.305 41.7766 732.305 43.62H740.305ZM728.925 32.24H683.169V40.24H728.925V32.24ZM679.169 36.24V82.98H687.169V36.24H679.169ZM785.12 161.208H781.12V163.167L782.668 164.368L785.12 161.208ZM785.12 142.02V138.02H781.12V142.02H785.12ZM862.61 108.81L861.807 112.728L861.892 112.746L861.979 112.76L862.61 108.81ZM814.64 98.97L815.444 95.0516L815.435 95.0496L815.425 95.0477L814.64 98.97ZM882.782 4.25999L885.235 1.10004L884.153 0.259986H882.782V4.25999ZM899.264 17.052H903.264V15.0931L901.717 13.8921L899.264 17.052ZM899.264 36.24V40.24H903.264V36.24H899.264ZM826.694 67.728L827.479 63.8057L827.479 63.8057L826.694 67.728ZM874.664 77.322L873.88 81.2443L873.88 81.2443L874.664 77.322ZM801.602 174L799.15 177.16L800.232 178H801.602V174ZM789.12 161.208V142.02H781.12V161.208H789.12ZM785.12 146.02H861.38V138.02H785.12V146.02ZM861.38 146.02C864.457 146.02 867.499 145.248 869.744 143.003C871.989 140.759 872.76 137.717 872.76 134.64H864.76C864.76 136.483 864.302 137.131 864.087 137.347C863.872 137.562 863.224 138.02 861.38 138.02V146.02ZM872.76 134.64V116.928H864.76V134.64H872.76ZM872.76 116.928C872.76 114.019 872.137 111.195 870.411 108.916C868.631 106.566 866.07 105.313 863.242 104.86L861.979 112.76C863.251 112.963 863.765 113.391 864.035 113.747C864.359 114.174 864.76 115.081 864.76 116.928H872.76ZM863.414 104.892L815.444 95.0516L813.837 102.888L861.807 112.728L863.414 104.892ZM815.425 95.0477C806.332 93.229 799.914 89.37 795.708 83.7261C791.461 78.0281 789.12 70.0457 789.12 59.364H781.12C781.12 71.1503 783.7 81.0029 789.293 88.5069C794.927 96.065 803.269 100.775 813.856 102.892L815.425 95.0477ZM789.12 59.364V45.588H781.12V59.364H789.12ZM789.12 45.588C789.12 32.4286 792.408 23.2937 798.281 17.4204C804.154 11.5471 813.289 8.25999 826.448 8.25999V0.259986C812.056 0.259986 800.527 3.86084 792.624 11.7636C784.721 19.6663 781.12 31.1954 781.12 45.588H789.12ZM826.448 8.25999H882.782V0.259986H826.448V8.25999ZM880.33 7.41993L896.812 20.2119L901.717 13.8921L885.235 1.10004L880.33 7.41993ZM895.264 17.052V36.24H903.264V17.052H895.264ZM899.264 32.24H827.924V40.24H899.264V32.24ZM827.924 32.24C824.848 32.24 821.806 33.0119 819.561 35.2566C817.316 37.5013 816.544 40.5434 816.544 43.62H824.544C824.544 41.7766 825.003 41.1287 825.218 40.9134C825.433 40.6981 826.081 40.24 827.924 40.24V32.24ZM816.544 43.62V59.61H824.544V43.62H816.544ZM816.544 59.61C816.544 62.4739 817.184 65.2421 818.894 67.4989C820.637 69.8007 823.133 71.0949 825.91 71.6503L827.479 63.8057C826.156 63.5411 825.577 63.0723 825.27 62.6681C824.93 62.2189 824.544 61.3381 824.544 59.61H816.544ZM825.91 71.6503L873.88 81.2443L875.449 73.3997L827.479 63.8057L825.91 71.6503ZM873.88 81.2443C882.973 83.063 889.391 86.922 893.597 92.5659C897.844 98.2639 900.184 106.246 900.184 116.928H908.184C908.184 105.142 905.605 95.2891 900.012 87.7851C894.378 80.227 886.036 75.517 875.449 73.3997L873.88 81.2443ZM900.184 116.928V132.672H908.184V116.928H900.184ZM900.184 132.672C900.184 145.831 896.897 154.966 891.024 160.84C885.151 166.713 876.016 170 862.856 170V178C877.249 178 888.778 174.399 896.681 166.496C904.584 158.594 908.184 147.065 908.184 132.672H900.184ZM862.856 170H801.602V178H862.856V170ZM804.055 170.84L787.573 158.048L782.668 164.368L799.15 177.16L804.055 170.84Z" fill="url(#paint0_linear_426_1175)" mask="url(#path-1-outside-1_426_1175)"/>
<defs>
<linearGradient id="paint0_linear_426_1175" x1="301.48" y1="136.135" x2="332.834" y2="-48.8845" gradientUnits="userSpaceOnUse">
<stop offset="0.09" stop-color="#1380CE"/>
<stop offset="0.61" stop-color="#1380CE"/>
<stop offset="1" stop-color="#202EFE"/>
</linearGradient>
</defs>
</svg>
