<svg  fill="none" xmlns="http://www.w3.org/2000/svg">
<g clip-path="url(#clip0_196_1064)">
<path d="M26.8308 4.5919C25.5847 3.53584 24.2785 2.4259 22.9485 1.21621C21.9282 0.288327 20.5502 -0.141697 19.1833 0.0414012C17.8586 0.216409 16.68 0.970397 15.966 2.09971C14.0786 5.25371 12.7441 8.70704 12.0203 12.3107C11.7362 11.9005 11.4843 11.4692 11.2666 11.0202C10.5167 9.44024 8.62795 8.7673 7.04798 9.51721C6.66546 9.69875 6.32324 9.95517 6.04158 10.2713C3.38581 12.9852 1.91353 16.6408 1.94708 20.4378C1.87159 28.4187 7.23991 35.4258 14.9653 37.4302C16.4027 37.7919 17.8784 37.979 19.3606 37.9875C19.4081 37.9875 19.9131 37.9828 20.1174 37.9685C29.5699 37.6624 37.0709 29.9048 37.0591 20.4473C37.0528 13.2749 32.3155 9.25321 26.8308 4.5919ZM19.321 34.8098C18.1426 34.7201 16.9782 34.2428 16.099 33.5336C14.7222 32.5594 13.8112 31.1308 13.5941 29.485C13.325 26.9168 14.9083 23.5586 18.1431 19.765C18.4823 19.3688 18.9785 19.1417 19.5 19.1443C20.0148 19.1406 20.5044 19.367 20.8348 19.7618C23.7988 23.28 25.4265 26.5258 25.4265 28.9023C25.4173 32.0247 22.9768 34.4947 19.869 34.7955C19.7325 34.8087 19.5 34.8288 19.321 34.8098ZM28.3286 31.7983C28.2352 31.8711 28.1323 31.9297 28.0373 31.9993C28.4026 31.0064 28.5908 29.9571 28.5931 28.8991C28.5931 24.8981 25.6877 20.6104 23.2525 17.7176C22.3209 16.6142 20.9505 15.9771 19.5063 15.9759H19.5C18.0529 15.9733 16.6776 16.6061 15.738 17.7065C11.8667 22.2412 10.0886 26.3151 10.4528 29.8158C10.5392 30.6285 10.7468 31.4237 11.0687 32.175C7.30893 29.4507 5.09358 25.0807 5.11852 20.4378C5.08794 17.4216 6.27737 14.521 8.41657 12.3944C8.78181 13.1537 9.22036 13.8754 9.72602 14.5494C10.4205 15.4883 11.6069 15.9239 12.7438 15.6577C13.903 15.4013 14.8031 14.487 15.0413 13.3239C15.6774 9.96148 16.893 6.73519 18.6338 3.78908C18.848 3.45227 19.2018 3.22917 19.5981 3.18108C20.0409 3.12148 20.4874 3.26123 20.8173 3.56264C22.1758 4.79764 23.509 5.93764 24.7756 7.00958C30.0608 11.4983 33.8813 14.741 33.8813 20.4473C33.895 24.8881 31.8451 29.0833 28.3333 31.8014L28.3286 31.7983Z" fill="url(#paint0_linear_196_1064)"/>
</g>
<defs>
<linearGradient id="paint0_linear_196_1064" x1="8.52994" y1="29.9152" x2="31.2901" y2="12.3297" gradientUnits="userSpaceOnUse">
<stop stop-color="#E54A64"/>
<stop offset="1" stop-color="#FE9751"/>
</linearGradient>
<clipPath id="clip0_196_1064">
<rect width="38" height="38" fill="white" transform="translate(0.5)"/>
</clipPath>
</defs>
</svg>
