<svg width="38" height="38" viewBox="0 0 38 38" fill="none" xmlns="http://www.w3.org/2000/svg">
<path d="M35.1618 7.9629C33.7427 5.59777 31.2199 4.021 28.3817 4.021H9.46059C6.62239 4.021 4.09962 5.59777 2.68048 7.9629C0.946067 11.1165 0 14.5854 0 18.2119C0 26.8841 3.46891 33.9795 7.88381 33.9795C10.2489 33.9795 12.1411 31.7721 13.5601 27.1994C13.7178 26.5687 14.3485 26.0957 15.1369 26.0957H22.8631C23.4938 26.0957 24.1245 26.5687 24.4399 27.1994C25.8589 31.7721 27.7511 33.9795 30.1162 33.9795C34.5311 33.9795 38 26.8841 38 18.2119C37.8424 14.5854 36.8963 11.1165 35.1618 7.9629ZM29.9585 30.826C29.4855 30.826 28.3817 29.5646 27.278 26.2534C26.6473 24.2036 24.7551 22.9422 22.7054 22.9422H15.1369C13.0871 22.9422 11.195 24.3612 10.5643 26.2534C9.46059 29.5646 8.35681 30.826 7.88381 30.826C6.30704 30.826 3.15355 25.938 3.15355 18.2119C3.15355 15.2161 3.94191 12.2202 5.36104 9.53975C6.30711 8.12069 7.88389 7.17463 9.46066 7.17463H28.3818C29.9586 7.17463 31.5354 8.12069 32.4815 9.53975C33.9005 12.2202 34.689 15.2161 34.689 18.2119C34.6888 25.938 31.5353 30.826 29.9585 30.826Z" fill="url(#paint0_linear_196_1058)"/>
<path d="M14.25 14.25H12.6667V12.6667C12.6667 11.7167 12.0334 11.0834 11.0834 11.0834C10.1334 11.0834 9.50012 11.7167 9.50012 12.6667V14.25H7.91681C6.96681 14.25 6.3335 14.8833 6.3335 15.8333C6.3335 16.7833 6.96681 17.4166 7.91681 17.4166H9.50004V19C9.50004 19.95 10.1334 20.5833 11.0834 20.5833C12.0334 20.5833 12.6667 19.95 12.6667 19V17.4167H14.25C15.2 17.4167 15.8334 16.7834 15.8334 15.8334C15.8334 14.8833 15.2 14.25 14.25 14.25Z" fill="url(#paint1_linear_196_1058)"/>
<path d="M29.2917 15.8333C30.6034 15.8333 31.6667 14.7699 31.6667 13.4583C31.6667 12.1466 30.6034 11.0833 29.2917 11.0833C27.9801 11.0833 26.9167 12.1466 26.9167 13.4583C26.9167 14.7699 27.9801 15.8333 29.2917 15.8333Z" fill="url(#paint2_linear_196_1058)"/>
<path d="M24.5417 20.5833C25.8534 20.5833 26.9167 19.5199 26.9167 18.2083C26.9167 16.8966 25.8534 15.8333 24.5417 15.8333C23.2301 15.8333 22.1667 16.8966 22.1667 18.2083C22.1667 19.5199 23.2301 20.5833 24.5417 20.5833Z" fill="url(#paint3_linear_196_1058)"/>
<defs>
<linearGradient id="paint0_linear_196_1058" x1="7.125" y1="27.6134" x2="25.6433" y2="7.97896" gradientUnits="userSpaceOnUse">
<stop offset="0.35" stop-color="#0084FF"/>
<stop offset="1" stop-color="#00C3FF"/>
</linearGradient>
<linearGradient id="paint1_linear_196_1058" x1="8.11472" y1="18.5646" x2="13.9037" y2="13.7256" gradientUnits="userSpaceOnUse">
<stop offset="0.35" stop-color="#0084FF"/>
<stop offset="1" stop-color="#00C3FF"/>
</linearGradient>
<linearGradient id="paint2_linear_196_1058" x1="27.8074" y1="14.8239" x2="30.7019" y2="12.4043" gradientUnits="userSpaceOnUse">
<stop offset="0.35" stop-color="#0084FF"/>
<stop offset="1" stop-color="#00C3FF"/>
</linearGradient>
<linearGradient id="paint3_linear_196_1058" x1="23.0574" y1="19.5739" x2="25.9519" y2="17.1544" gradientUnits="userSpaceOnUse">
<stop offset="0.35" stop-color="#0084FF"/>
<stop offset="1" stop-color="#00C3FF"/>
</linearGradient>
</defs>
</svg>
