<svg  fill="none" xmlns="http://www.w3.org/2000/svg">
<g clip-path="url(#clip0_196_1067)">
<path d="M19.0001 9.5C17.7475 9.5 16.523 9.87144 15.4815 10.5674C14.44 11.2633 13.6282 12.2524 13.1488 13.4097C12.6695 14.5669 12.5441 15.8404 12.7884 17.0689C13.0328 18.2975 13.636 19.4259 14.5217 20.3117C15.4075 21.1974 16.536 21.8006 17.7645 22.045C18.9931 22.2893 20.2665 22.1639 21.4237 21.6846C22.581 21.2052 23.5701 20.3935 24.2661 19.3519C24.962 18.3104 25.3334 17.0859 25.3334 15.8333C25.3334 14.1536 24.6662 12.5427 23.4784 11.355C22.2907 10.1673 20.6798 9.5 19.0001 9.5ZM19.0001 19C18.3738 19 17.7615 18.8143 17.2408 18.4663C16.72 18.1184 16.3141 17.6238 16.0745 17.0452C15.8348 16.4665 15.7721 15.8298 15.8943 15.2155C16.0165 14.6013 16.318 14.037 16.7609 13.5942C17.2038 13.1513 17.768 12.8497 18.3823 12.7275C18.9966 12.6053 19.6333 12.668 20.2119 12.9077C20.7905 13.1474 21.2851 13.5533 21.6331 14.074C21.981 14.5948 22.1668 15.207 22.1668 15.8333C22.1668 16.6732 21.8331 17.4786 21.2393 18.0725C20.6454 18.6664 19.8399 19 19.0001 19Z" fill="url(#paint0_linear_196_1067)"/>
<path d="M18.9998 38.0005C17.6665 38.0073 16.351 37.6946 15.1634 37.0886C13.9759 36.4825 12.9508 35.6008 12.174 34.5172C6.13993 26.1936 3.07935 19.9362 3.07935 15.9177C3.07935 11.6954 4.75667 7.64595 7.74233 4.6603C10.728 1.67464 14.7774 -0.00268555 18.9998 -0.00268555C23.2221 -0.00268555 27.2715 1.67464 30.2572 4.6603C33.2429 7.64595 34.9202 11.6954 34.9202 15.9177C34.9202 19.9362 31.8596 26.1936 25.8255 34.5172C25.0487 35.6008 24.0236 36.4825 22.8361 37.0886C21.6485 37.6946 20.333 38.0073 18.9998 38.0005ZM18.9998 3.45373C15.6944 3.4575 12.5255 4.77222 10.1883 7.10945C7.85108 9.44668 6.53637 12.6156 6.5326 15.9209C6.5326 19.1034 9.52984 24.9887 14.9702 32.4921C15.432 33.1282 16.0379 33.646 16.7383 34.003C17.4387 34.36 18.2136 34.5461 18.9998 34.5461C19.7859 34.5461 20.5608 34.36 21.2612 34.003C21.9616 33.646 22.5675 33.1282 23.0293 32.4921C28.4697 24.9887 31.4669 19.1034 31.4669 15.9209C31.4632 12.6156 30.1484 9.44668 27.8112 7.10945C25.474 4.77222 22.3051 3.4575 18.9998 3.45373Z" fill="url(#paint1_linear_196_1067)"/>
</g>
<defs>
<linearGradient id="paint0_linear_196_1067" x1="15.0417" y1="19.475" x2="22.7605" y2="13.0229" gradientUnits="userSpaceOnUse">
<stop stop-color="#E54A64"/>
<stop offset="1" stop-color="#FE9751"/>
</linearGradient>
<linearGradient id="paint1_linear_196_1067" x1="9.0495" y1="29.9249" x2="31.1632" y2="14.4375" gradientUnits="userSpaceOnUse">
<stop stop-color="#E54A64"/>
<stop offset="1" stop-color="#FE9751"/>
</linearGradient>
<clipPath id="clip0_196_1067">
<rect width="38" height="38" fill="white"/>
</clipPath>
</defs>
</svg>
