<svg  fill="none" xmlns="http://www.w3.org/2000/svg">
<g clip-path="url(#clip0_196_1022)">
<path d="M38.056 35.3087L28.6188 25.8714C34.1548 19.1007 33.1539 9.12403 26.3831 3.58805C19.6124 -1.94792 9.63582 -0.947158 4.09977 5.8236C-1.43628 12.5943 -0.435364 22.571 6.33539 28.107C12.1674 32.8755 20.5512 32.8755 26.3832 28.107L35.8205 37.5443C36.4486 38.1509 37.4495 38.1335 38.0561 37.5054C38.6478 36.8928 38.6478 35.9214 38.056 35.3087ZM3.7361 15.8728C3.7361 8.88727 9.39899 3.22438 16.3845 3.22438C23.3701 3.22438 29.033 8.88727 29.033 15.8728C29.033 22.8584 23.3701 28.5212 16.3845 28.5212C9.40226 28.5134 3.74397 22.8551 3.7361 15.8728ZM19.5467 9.54856C18.3656 9.5539 17.2323 10.0162 16.3846 10.8387C15.5369 10.0163 14.4036 9.5539 13.2225 9.54856C10.5185 9.64222 8.39852 11.9035 8.47935 14.6079C8.47935 17.77 11.7063 21.0318 14.4146 23.2088C15.5675 24.127 17.2018 24.127 18.3546 23.2088C21.0629 21.0317 24.2899 17.77 24.2899 14.6079C24.3706 11.9035 22.2507 9.64222 19.5467 9.54856ZM16.394 20.7425C13.4628 18.3867 11.6414 16.0309 11.6414 14.608C11.5625 13.6501 12.266 12.8058 13.2224 12.7107C14.1788 12.8058 14.8824 13.6501 14.8035 14.608C14.8035 15.4812 15.5114 16.1891 16.3846 16.1891C17.2578 16.1891 17.9657 15.4812 17.9657 14.608C17.8868 13.6501 18.5903 12.8058 19.5468 12.7107C20.5032 12.8058 21.2067 13.6501 21.1279 14.608C21.1277 16.0309 19.3064 18.3867 16.394 20.7425Z" fill="url(#paint0_linear_196_1022)"/>
</g>
<defs>
<linearGradient id="paint0_linear_196_1022" x1="7.64362" y1="29.918" x2="30.7858" y2="10.5735" gradientUnits="userSpaceOnUse">
<stop stop-color="#E54A64"/>
<stop offset="1" stop-color="#FE9751"/>
</linearGradient>
<clipPath id="clip0_196_1022">
<rect width="38" height="38" fill="white" transform="translate(0.5)"/>
</clipPath>
</defs>
</svg>
