<svg width="24" height="25" viewBox="0 0 24 25" fill="none" xmlns="http://www.w3.org/2000/svg">
<g clip-path="url(#clip0_160_1115)">
<path d="M22.3189 4.93107L8.49988 18.7491C8.40697 18.8423 8.29655 18.9164 8.17497 18.9669C8.05339 19.0174 7.92303 19.0434 7.79138 19.0434C7.65972 19.0434 7.52937 19.0174 7.40778 18.9669C7.2862 18.9164 7.17579 18.8423 7.08288 18.7491L1.73888 13.4001C1.64597 13.3068 1.53555 13.2328 1.41397 13.1823C1.29239 13.1318 1.16203 13.1058 1.03038 13.1058C0.898723 13.1058 0.768365 13.1318 0.646783 13.1823C0.5252 13.2328 0.414787 13.3068 0.321877 13.4001V13.4001C0.2286 13.493 0.154588 13.6034 0.104086 13.725C0.0535845 13.8466 0.0275879 13.9769 0.0275879 14.1086C0.0275879 14.2402 0.0535845 14.3706 0.104086 14.4922C0.154588 14.6137 0.2286 14.7242 0.321877 14.8171L5.66788 20.1621C6.23183 20.725 6.99607 21.0411 7.79288 21.0411C8.58968 21.0411 9.35393 20.725 9.91788 20.1621L23.7359 6.34707C23.829 6.25418 23.9029 6.14383 23.9533 6.02234C24.0037 5.90085 24.0297 5.7706 24.0297 5.63907C24.0297 5.50753 24.0037 5.37729 23.9533 5.2558C23.9029 5.13431 23.829 5.02396 23.7359 4.93107C23.643 4.83779 23.5326 4.76378 23.411 4.71328C23.2894 4.66278 23.159 4.63678 23.0274 4.63678C22.8957 4.63678 22.7654 4.66278 22.6438 4.71328C22.5222 4.76378 22.4118 4.83779 22.3189 4.93107Z" fill="url(#paint0_linear_160_1115)"/>
</g>
<defs>
<linearGradient id="paint0_linear_160_1115" x1="4.52798" y1="17.5552" x2="14.4829" y2="5.37984" gradientUnits="userSpaceOnUse">
<stop offset="0.35" stop-color="#0084FF"/>
<stop offset="1" stop-color="#00C3FF"/>
</linearGradient>
<clipPath id="clip0_160_1115">
<rect width="24" height="24" fill="white" transform="translate(0 0.5)"/>
</clipPath>
</defs>
</svg>
