<svg  fill="none" xmlns="http://www.w3.org/2000/svg">
<g clip-path="url(#clip0_196_1053)">
<path d="M2.08333 7.52124H6.41533C6.75517 8.77165 7.49702 9.87549 8.52643 10.6625C9.55584 11.4494 10.8156 11.8758 12.1114 11.8758C13.4071 11.8758 14.6669 11.4494 15.6963 10.6625C16.7257 9.87549 17.4676 8.77165 17.8074 7.52124H36.9167C37.3366 7.52124 37.7393 7.35443 38.0363 7.0575C38.3332 6.76056 38.5 6.35784 38.5 5.93791C38.5 5.51798 38.3332 5.11526 38.0363 4.81832C37.7393 4.52139 37.3366 4.35458 36.9167 4.35458H17.8074C17.4676 3.10417 16.7257 2.00033 15.6963 1.21335C14.6669 0.426378 13.4071 0 12.1114 0C10.8156 0 9.55584 0.426378 8.52643 1.21335C7.49702 2.00033 6.75517 3.10417 6.41533 4.35458H2.08333C1.66341 4.35458 1.26068 4.52139 0.963748 4.81832C0.666815 5.11526 0.5 5.51798 0.5 5.93791C0.5 6.35784 0.666815 6.76056 0.963748 7.0575C1.26068 7.35443 1.66341 7.52124 2.08333 7.52124ZM12.1106 3.16708C12.6586 3.16708 13.1943 3.32958 13.65 3.63405C14.1056 3.93851 14.4608 4.37125 14.6705 4.87756C14.8802 5.38386 14.9351 5.94098 14.8282 6.47847C14.7213 7.01596 14.4574 7.50968 14.0699 7.89718C13.6824 8.28469 13.1886 8.54859 12.6511 8.6555C12.1137 8.76242 11.5565 8.70754 11.0502 8.49783C10.5439 8.28811 10.1112 7.93296 9.80672 7.4773C9.50226 7.02164 9.33975 6.48593 9.33975 5.93791C9.34059 5.2033 9.63278 4.49901 10.1522 3.97956C10.6717 3.46011 11.376 3.16791 12.1106 3.16708Z" fill="url(#paint0_linear_196_1053)"/>
<path d="M36.9167 17.4152H32.5847C32.2454 16.1645 31.5038 15.0603 30.4745 14.273C29.4452 13.4857 28.1853 13.0591 26.8894 13.0591C25.5935 13.0591 24.3336 13.4857 23.3043 14.273C22.275 15.0603 21.5334 16.1645 21.1942 17.4152H2.08333C1.66341 17.4152 1.26068 17.582 0.963748 17.8789C0.666815 18.1759 0.5 18.5786 0.5 18.9985C0.5 19.4184 0.666815 19.8212 0.963748 20.1181C1.26068 20.415 1.66341 20.5819 2.08333 20.5819H21.1942C21.5334 21.8326 22.275 22.9368 23.3043 23.7241C24.3336 24.5114 25.5935 24.938 26.8894 24.938C28.1853 24.938 29.4452 24.5114 30.4745 23.7241C31.5038 22.9368 32.2454 21.8326 32.5847 20.5819H36.9167C37.3366 20.5819 37.7393 20.415 38.0363 20.1181C38.3332 19.8212 38.5 19.4184 38.5 18.9985C38.5 18.5786 38.3332 18.1759 38.0363 17.8789C37.7393 17.582 37.3366 17.4152 36.9167 17.4152ZM26.8894 21.7694C26.3414 21.7694 25.8057 21.6068 25.35 21.3024C24.8944 20.9979 24.5392 20.5652 24.3295 20.0589C24.1198 19.5526 24.0649 18.9955 24.1718 18.458C24.2787 17.9205 24.5426 17.4268 24.9301 17.0393C25.3177 16.6517 25.8114 16.3878 26.3489 16.2809C26.8863 16.174 27.4435 16.2289 27.9498 16.4386C28.4561 16.6483 28.8888 17.0035 29.1933 17.4591C29.4977 17.9148 29.6602 18.4505 29.6602 18.9985C29.6594 19.7331 29.3672 20.4374 28.8478 20.9569C28.3283 21.4763 27.624 21.7685 26.8894 21.7694Z" fill="url(#paint1_linear_196_1053)"/>
<path d="M36.9167 30.4797H17.8074C17.4676 29.2293 16.7257 28.1254 15.6963 27.3385C14.6669 26.5515 13.4071 26.1251 12.1114 26.1251C10.8156 26.1251 9.55584 26.5515 8.52643 27.3385C7.49702 28.1254 6.75517 29.2293 6.41533 30.4797H2.08333C1.66341 30.4797 1.26068 30.6465 0.963748 30.9434C0.666815 31.2404 0.5 31.6431 0.5 32.063C0.5 32.4829 0.666815 32.8857 0.963748 33.1826C1.26068 33.4795 1.66341 33.6463 2.08333 33.6463H6.41533C6.75517 34.8967 7.49702 36.0006 8.52643 36.7875C9.55584 37.5745 10.8156 38.0009 12.1114 38.0009C13.4071 38.0009 14.6669 37.5745 15.6963 36.7875C16.7257 36.0006 17.4676 34.8967 17.8074 33.6463H36.9167C37.3366 33.6463 37.7393 33.4795 38.0363 33.1826C38.3332 32.8857 38.5 32.4829 38.5 32.063C38.5 31.6431 38.3332 31.2404 38.0363 30.9434C37.7393 30.6465 37.3366 30.4797 36.9167 30.4797ZM12.1106 34.8338C11.5626 34.8338 11.0269 34.6713 10.5712 34.3669C10.1155 34.0624 9.76039 33.6297 9.55067 33.1234C9.34095 32.6171 9.28608 32.0599 9.39299 31.5224C9.4999 30.985 9.7638 30.4913 10.1513 30.1037C10.5388 29.7162 11.0325 29.4523 11.57 29.3454C12.1075 29.2385 12.6646 29.2934 13.1709 29.5031C13.6772 29.7128 14.11 30.068 14.4144 30.5236C14.7189 30.9793 14.8814 31.515 14.8814 32.063C14.8802 32.7975 14.5878 33.5015 14.0685 34.0209C13.5491 34.5402 12.8451 34.8326 12.1106 34.8338Z" fill="url(#paint2_linear_196_1053)"/>
</g>
<defs>
<linearGradient id="paint0_linear_196_1053" x1="7.625" y1="9.35221" x2="12.4492" y2="-3.55095" gradientUnits="userSpaceOnUse">
<stop stop-color="#E54A64"/>
<stop offset="1" stop-color="#FE9751"/>
</linearGradient>
<linearGradient id="paint1_linear_196_1053" x1="7.625" y1="22.4137" x2="12.4514" y2="9.50803" gradientUnits="userSpaceOnUse">
<stop stop-color="#E54A64"/>
<stop offset="1" stop-color="#FE9751"/>
</linearGradient>
<linearGradient id="paint2_linear_196_1053" x1="7.625" y1="35.4773" x2="12.4491" y2="22.5742" gradientUnits="userSpaceOnUse">
<stop stop-color="#E54A64"/>
<stop offset="1" stop-color="#FE9751"/>
</linearGradient>
<clipPath id="clip0_196_1053">
<rect width="38" height="38" fill="white" transform="translate(0.5)"/>
</clipPath>
</defs>
</svg>
