<svg width="176" height="99" viewBox="0 0 176 99" fill="none" xmlns="http://www.w3.org/2000/svg">
<path fill-rule="evenodd" clip-rule="evenodd" d="M1.14279 1.1248C2.65946 -0.381931 5.1104 -0.373876 6.61713 1.14279L48.7364 43.5398L90.8556 1.14279C91.5823 0.411334 92.5707 1.47965e-07 93.6018 1.47965e-07H172.129C173.692 1.47965e-07 175.102 0.94038 175.703 2.38374C176.303 3.82709 175.977 5.49006 174.875 6.59914L133.727 48.0183C133.001 48.7498 132.012 49.1611 130.981 49.1611H97.4727V94.1935C97.4727 95.7615 96.5268 97.1746 95.0772 97.7722C93.6276 98.3699 91.9607 98.034 90.8556 96.9217L48.7364 54.5247L6.61713 96.9217C5.1104 98.4383 2.65946 98.4464 1.14279 96.9397C-0.373876 95.4329 -0.381931 92.982 1.1248 91.4653L43.2799 49.0322L1.1248 6.59914C-0.381931 5.08247 -0.373876 2.63153 1.14279 1.1248ZM54.1928 49.0322L89.7308 84.8045V45.2901C89.7308 43.1523 91.4639 41.4192 93.6018 41.4192H129.37L162.827 7.74193H95.2126L54.1928 49.0322Z" fill="white"/>
<path fill-rule="evenodd" clip-rule="evenodd" d="M105.29 21.4193C105.29 19.2814 106.792 17.5483 108.645 17.5483H128.774C130.627 17.5483 132.129 19.2814 132.129 21.4193C132.129 23.5572 130.627 25.2903 128.774 25.2903H108.645C106.792 25.2903 105.29 23.5572 105.29 21.4193Z" fill="white"/>
<path d="M157.975 75.2619H167.141V71.6387C167.141 71.2464 167.08 70.9883 166.956 70.8645C166.832 70.7406 166.574 70.6787 166.181 70.6787H158.935C158.543 70.6787 158.285 70.7406 158.161 70.8645C158.037 70.9883 157.975 71.2464 157.975 71.6387V75.2619ZM157.758 68.8516H167.327C168.958 68.8516 169.774 69.667 169.774 71.298V77.089H157.975V81.0838C157.975 81.4967 158.037 81.7651 158.161 81.889C158.285 81.9922 158.543 82.0438 158.935 82.0438H166.089C166.501 82.0438 166.76 81.9922 166.863 81.889C166.987 81.7651 167.049 81.4967 167.049 81.0838V79.6283H169.681V81.4245C169.681 83.0554 168.865 83.8709 167.234 83.8709H157.758C156.127 83.8709 155.312 83.0554 155.312 81.4245V71.298C155.312 69.667 156.127 68.8516 157.758 68.8516Z" fill="white"/>
<path d="M141.532 68.8516H148.841C150.472 68.8516 151.287 69.667 151.287 71.298V83.8709H148.624V71.6387C148.624 71.2464 148.562 70.9883 148.438 70.8645C148.335 70.7406 148.077 70.6787 147.664 70.6787H140.882C140.51 70.6787 140.242 70.7612 140.077 70.9264C139.912 71.0916 139.829 71.3703 139.829 71.7625V72.7845H139.798V83.8709H137.135V68.8516H139.798V69.9354C140.025 69.2129 140.603 68.8516 141.532 68.8516Z" fill="white"/>
<path d="M130.164 81.0838V71.6387C130.164 71.2464 130.102 70.9883 129.978 70.8645C129.875 70.7406 129.617 70.6787 129.204 70.6787H122.143C121.73 70.6787 121.462 70.7406 121.338 70.8645C121.235 70.9883 121.183 71.2464 121.183 71.6387V81.0838C121.183 81.4967 121.235 81.7651 121.338 81.889C121.462 81.9922 121.73 82.0438 122.143 82.0438H129.204C129.617 82.0438 129.875 81.9922 129.978 81.889C130.102 81.7651 130.164 81.4967 130.164 81.0838ZM120.997 68.8516H130.349C131.98 68.8516 132.796 69.667 132.796 71.298V81.4245C132.796 83.0554 131.98 83.8709 130.349 83.8709H120.997C119.366 83.8709 118.551 83.0554 118.551 81.4245V71.298C118.551 69.667 119.366 68.8516 120.997 68.8516Z" fill="white"/>
<path d="M115.151 68.8516V70.6787L105.954 82.0438H115.151V83.8709H103.104V82.0438L112.302 70.6787H103.507V68.8516H115.151Z" fill="white"/>
</svg>
