<svg width="341" height="190" viewBox="0 0 341 190" fill="none" xmlns="http://www.w3.org/2000/svg">
<path fill-rule="evenodd" clip-rule="evenodd" d="M2.21416 2.1793C5.1527 -0.739992 9.90141 -0.724385 12.8207 2.21416L94.4268 84.3584L176.033 2.21416C177.441 0.796959 179.356 2.86683e-07 181.354 2.86683e-07H333.5C336.529 2.86683e-07 339.261 1.82199 340.424 4.61849C341.588 7.415 340.955 10.637 338.821 12.7858L259.097 93.0356C257.689 94.4528 255.774 95.2497 253.776 95.2497H188.854V182.5C188.854 185.538 187.021 188.276 184.212 189.434C181.404 190.592 178.174 189.941 176.033 187.786L94.4268 105.642L12.8207 187.786C9.90141 190.724 5.1527 190.74 2.21416 187.821C-0.724385 184.901 -0.739992 180.153 2.1793 177.214L83.8548 95L2.1793 12.7858C-0.739992 9.8473 -0.724385 5.09859 2.21416 2.1793ZM104.999 95L173.854 164.309V87.7497C173.854 83.6076 177.211 80.2497 181.354 80.2497H250.655L315.477 15H184.475L104.999 95Z" fill="url(#paint0_linear_105_2869)"/>
<path fill-rule="evenodd" clip-rule="evenodd" d="M204 41.5C204 37.3579 206.91 34 210.5 34H249.5C253.09 34 256 37.3579 256 41.5C256 45.6421 253.09 49 249.5 49H210.5C206.91 49 204 45.6421 204 41.5Z" fill="url(#paint1_linear_105_2869)"/>
<path d="M306.076 145.82H323.837V138.8C323.837 138.04 323.717 137.54 323.477 137.3C323.237 137.06 322.737 136.94 321.977 136.94H307.937C307.177 136.94 306.677 137.06 306.437 137.3C306.197 137.54 306.076 138.04 306.076 138.8V145.82ZM305.657 133.4H324.197C327.357 133.4 328.937 134.98 328.937 138.14V149.36H306.076V157.1C306.076 157.9 306.197 158.42 306.437 158.66C306.677 158.86 307.177 158.96 307.937 158.96H321.797C322.597 158.96 323.097 158.86 323.297 158.66C323.537 158.42 323.657 157.9 323.657 157.1V154.28H328.757V157.76C328.757 160.92 327.177 162.5 324.017 162.5H305.657C302.497 162.5 300.917 160.92 300.917 157.76V138.14C300.917 134.98 302.497 133.4 305.657 133.4Z" fill="white"/>
<path d="M274.219 133.4H288.379C291.539 133.4 293.119 134.98 293.119 138.14V162.5H287.959V138.8C287.959 138.04 287.839 137.54 287.599 137.3C287.399 137.06 286.899 136.94 286.099 136.94H272.959C272.239 136.94 271.719 137.1 271.399 137.42C271.079 137.74 270.919 138.28 270.919 139.04V141.02H270.859V162.5H265.699V133.4H270.859V135.5C271.299 134.1 272.419 133.4 274.219 133.4Z" fill="white"/>
<path d="M252.192 157.1V138.8C252.192 138.04 252.072 137.54 251.832 137.3C251.632 137.06 251.132 136.94 250.332 136.94H236.652C235.852 136.94 235.332 137.06 235.092 137.3C234.892 137.54 234.792 138.04 234.792 138.8V157.1C234.792 157.9 234.892 158.42 235.092 158.66C235.332 158.86 235.852 158.96 236.652 158.96H250.332C251.132 158.96 251.632 158.86 251.832 158.66C252.072 158.42 252.192 157.9 252.192 157.1ZM234.432 133.4H252.552C255.712 133.4 257.292 134.98 257.292 138.14V157.76C257.292 160.92 255.712 162.5 252.552 162.5H234.432C231.272 162.5 229.692 160.92 229.692 157.76V138.14C229.692 134.98 231.272 133.4 234.432 133.4Z" fill="white"/>
<path d="M223.105 133.4V136.94L205.285 158.96H223.105V162.5H199.765V158.96L217.585 136.94H200.545V133.4H223.105Z" fill="white"/>
<defs>
<linearGradient id="paint0_linear_105_2869" x1="63.9375" y1="149.625" x2="172.528" y2="-13.2841" gradientUnits="userSpaceOnUse">
<stop offset="0.35" stop-color="#0084FF"/>
<stop offset="1" stop-color="#00C3FF"/>
</linearGradient>
<linearGradient id="paint1_linear_105_2869" x1="213.75" y1="45.8125" x2="219.478" y2="29.2135" gradientUnits="userSpaceOnUse">
<stop offset="0.35" stop-color="#0084FF"/>
<stop offset="1" stop-color="#00C3FF"/>
</linearGradient>
</defs>
</svg>
